REM SINGLE-DENSITY AREA
FILE "Dance Dance Revolution - Club Version - Dreamcast Edition (Japan) (Track 1).bin" BINARY
  TRACK 01 MODE1/2352
    INDEX 01 00:00:00
FILE "Dance Dance Revolution - Club Version - Dreamcast Edition (Japan) (Track 2).bin" BINARY
  TRACK 02 AUDIO
    INDEX 00 00:00:00
    INDEX 01 00:02:00
REM HIGH-DENSITY AREA
FILE "Dance Dance Revolution - Club Version - Dreamcast Edition (Japan) (Track 3).bin" BINARY
  TRACK 03 MODE1/2352
    INDEX 01 00:00:00
